<svg xmlns="http://www.w3.org/2000/svg" xmlns:xlink="http://www.w3.org/1999/xlink" width="500" zoomAndPan="magnify" viewBox="0 0 375 374.999991" height="500" preserveAspectRatio="xMidYMid meet" version="1.0"><defs><g/><clipPath id="95f025640b"><path d="M 2.589844 58 L 372.339844 58 L 372.339844 334 L 2.589844 334 Z M 2.589844 58 " clip-rule="nonzero"/></clipPath></defs><rect x="-37.5" width="450" fill="#ffffff" y="-37.499999" height="449.999989" fill-opacity="1"/><rect x="-37.5" width="450" fill="#f2f1ec" y="-37.499999" height="449.999989" fill-opacity="1"/><g clip-path="url(#95f025640b)"><path fill="#1a605d" d="M 330.144531 76.96875 C 351.277344 100.746094 343.351562 129.800781 316.9375 158.859375 C 269.386719 206.40625 166.367188 251.3125 60.703125 264.523438 C 42.210938 267.164062 21.078125 267.164062 2.589844 267.164062 C 23.722656 275.089844 47.496094 277.730469 71.269531 277.730469 C 97.683594 312.070312 137.308594 333.203125 182.214844 333.203125 C 248.253906 333.203125 303.726562 285.65625 319.578125 224.898438 C 290.519531 240.75 253.539062 253.957031 211.273438 259.238281 C 256.179688 243.390625 295.804688 222.257812 322.21875 201.125 C 377.691406 156.21875 396.183594 103.386719 330.144531 79.613281 Z M 285.238281 76.96875 C 285.238281 87.535156 293.160156 95.460938 303.726562 95.460938 C 314.292969 95.460938 322.21875 87.535156 322.21875 76.96875 C 322.21875 66.402344 314.292969 58.480469 303.726562 58.480469 C 293.160156 58.480469 285.238281 66.402344 285.238281 76.96875 Z M 285.238281 76.96875 " fill-opacity="1" fill-rule="evenodd"/></g><path fill="#247397" d="M 169.007812 98.101562 C 166.367188 84.894531 166.367188 69.046875 166.367188 55.839844 C 118.816406 61.121094 79.195312 90.179688 58.0625 129.800781 C 65.984375 127.160156 76.550781 124.519531 84.476562 121.878906 C 84.476562 113.953125 92.402344 108.667969 100.328125 108.667969 C 105.609375 108.667969 110.894531 111.3125 113.535156 116.59375 C 129.382812 113.953125 145.234375 111.3125 161.082031 111.3125 C 163.722656 106.027344 166.367188 103.386719 171.648438 100.746094 Z M 190.140625 100.746094 C 211.273438 90.179688 237.6875 84.894531 266.746094 82.253906 C 242.972656 63.761719 213.914062 53.195312 182.214844 53.195312 C 182.214844 53.195312 179.574219 53.195312 179.574219 53.195312 C 179.574219 66.402344 179.574219 82.253906 182.214844 95.460938 C 184.855469 95.460938 190.140625 98.101562 192.78125 100.746094 Z M 195.421875 111.3125 C 232.40625 116.59375 269.386719 129.800781 303.726562 156.21875 C 303.726562 156.21875 306.371094 153.578125 306.371094 153.578125 C 306.371094 153.578125 309.011719 150.933594 309.011719 150.933594 C 301.085938 129.800781 290.519531 111.3125 274.671875 95.460938 L 269.386719 95.460938 C 240.332031 95.460938 213.914062 103.386719 192.78125 111.3125 Z M 187.5 132.445312 C 195.421875 158.859375 205.988281 185.273438 219.199219 209.050781 C 245.613281 195.839844 274.671875 182.632812 298.445312 161.5 C 264.105469 137.726562 229.765625 124.519531 195.421875 119.234375 C 192.78125 124.519531 190.140625 127.160156 187.5 129.800781 Z M 163.722656 129.800781 C 124.101562 158.859375 97.683594 203.765625 71.269531 251.3125 C 73.910156 251.3125 76.550781 251.3125 79.195312 251.3125 C 124.101562 243.390625 169.007812 230.183594 211.273438 214.332031 C 195.421875 187.917969 184.855469 161.5 176.933594 135.085938 C 171.648438 135.085938 166.367188 132.445312 163.722656 129.800781 Z M 158.441406 119.234375 C 145.234375 119.234375 129.382812 121.878906 113.535156 124.519531 C 113.535156 132.445312 105.609375 137.726562 97.683594 137.726562 C 92.402344 137.726562 87.117188 135.085938 84.476562 132.445312 C 73.910156 135.085938 63.34375 137.726562 52.777344 143.011719 L 47.496094 145.652344 C 42.210938 161.5 36.929688 179.992188 36.929688 198.484375 C 36.929688 219.617188 42.210938 240.75 50.136719 259.238281 L 52.777344 259.238281 L 55.421875 256.597656 C 81.835938 203.765625 110.894531 156.21875 153.160156 127.160156 Z M 158.441406 119.234375 " fill-opacity="1" fill-rule="evenodd"/><g fill="#790000" fill-opacity="1"><g transform="translate(41.034466, 245.384516)"><g><path d="M -0.578125 -1.703125 L -13.609375 2.765625 L -15.515625 -2.78125 C -15.796875 -3.59375 -15.90625 -4.316406 -15.84375 -4.953125 C -15.789062 -5.597656 -15.578125 -6.144531 -15.203125 -6.59375 C -14.835938 -7.039062 -14.34375 -7.375 -13.71875 -7.59375 C -13.132812 -7.789062 -12.570312 -7.820312 -12.03125 -7.6875 C -11.5 -7.5625 -11.007812 -7.285156 -10.5625 -6.859375 L -10.375 -6.921875 C -10.4375 -7.804688 -10.257812 -8.566406 -9.84375 -9.203125 C -9.4375 -9.847656 -8.820312 -10.3125 -8 -10.59375 C -6.757812 -11.019531 -5.671875 -10.972656 -4.734375 -10.453125 C -3.796875 -9.929688 -3.070312 -8.9375 -2.5625 -7.46875 Z M -10.140625 -4.03125 C -10.546875 -5.238281 -11.289062 -5.65625 -12.375 -5.28125 C -12.925781 -5.09375 -13.285156 -4.800781 -13.453125 -4.40625 C -13.628906 -4.019531 -13.613281 -3.519531 -13.40625 -2.90625 L -12.5625 -0.453125 L -9.296875 -1.578125 Z M -4.515625 -6.5 C -5.003906 -7.914062 -5.890625 -8.40625 -7.171875 -7.96875 C -8.472656 -7.519531 -8.878906 -6.585938 -8.390625 -5.171875 L -7.390625 -2.234375 L -3.515625 -3.5625 Z M -4.515625 -6.5 "/></g></g></g><g fill="#790000" fill-opacity="1"><g transform="translate(36.865149, 233.159586)"><g><path d="M -0.796875 -3.984375 C -0.640625 -3.335938 -0.617188 -2.742188 -0.734375 -2.203125 C -0.847656 -1.671875 -1.101562 -1.21875 -1.5 -0.84375 C -1.90625 -0.46875 -2.429688 -0.195312 -3.078125 -0.03125 C -3.671875 0.125 -4.203125 0.128906 -4.671875 -0.015625 C -5.140625 -0.171875 -5.570312 -0.488281 -5.96875 -0.96875 C -6.363281 -1.445312 -6.742188 -2.09375 -7.109375 -2.90625 C -7.347656 -3.488281 -7.566406 -3.921875 -7.765625 -4.203125 C -7.972656 -4.484375 -8.160156 -4.660156 -8.328125 -4.734375 C -8.503906 -4.804688 -8.703125 -4.816406 -8.921875 -4.765625 C -9.242188 -4.679688 -9.460938 -4.503906 -9.578125 -4.234375 C -9.691406 -3.960938 -9.679688 -3.5625 -9.546875 -3.03125 C -9.410156 -2.476562 -9.148438 -1.984375 -8.765625 -1.546875 C -8.390625 -1.109375 -7.953125 -0.75 -7.453125 -0.46875 L -7.40625 -0.296875 L -8.71875 1.171875 C -9.425781 0.816406 -10.03125 0.304688 -10.53125 -0.359375 C -11.03125 -1.023438 -11.394531 -1.789062 -11.625 -2.65625 C -11.957031 -3.988281 -11.914062 -5.023438 -11.5 -5.765625 C -11.082031 -6.503906 -10.359375 -7.003906 -9.328125 -7.265625 L -4.953125 -8.390625 C -4.492188 -8.503906 -4.316406 -8.765625 -4.421875 -9.171875 C -4.460938 -9.328125 -4.535156 -9.46875 -4.640625 -9.59375 L -4.625 -9.734375 L -2.921875 -10.359375 C -2.785156 -10.242188 -2.65625 -10.066406 -2.53125 -9.828125 C -2.40625 -9.585938 -2.304688 -9.320312 -2.234375 -9.03125 C -2.078125 -8.425781 -2.070312 -7.925781 -2.21875 -7.53125 C -2.363281 -7.132812 -2.664062 -6.800781 -3.125 -6.53125 L -3.09375 -6.328125 C -1.90625 -6.109375 -1.140625 -5.328125 -0.796875 -3.984375 Z M -2.921875 -4.296875 C -3.066406 -4.878906 -3.378906 -5.296875 -3.859375 -5.546875 C -4.335938 -5.796875 -4.929688 -5.832031 -5.640625 -5.65625 L -6.65625 -5.390625 L -6.65625 -5.203125 C -6.476562 -5.078125 -6.316406 -4.90625 -6.171875 -4.6875 C -6.035156 -4.46875 -5.867188 -4.132812 -5.671875 -3.6875 C -5.429688 -3.164062 -5.171875 -2.8125 -4.890625 -2.625 C -4.617188 -2.445312 -4.28125 -2.40625 -3.875 -2.5 C -3.4375 -2.613281 -3.132812 -2.828125 -2.96875 -3.140625 C -2.8125 -3.453125 -2.796875 -3.835938 -2.921875 -4.296875 Z M -2.921875 -4.296875 "/></g></g></g><g fill="#790000" fill-opacity="1"><g transform="translate(34.239027, 223.067218)"><g><path d="M -0.265625 -1.484375 L -10.515625 0.328125 L -10.9375 -2.125 L -9.421875 -2.390625 L -9.421875 -2.609375 C -10.691406 -3.035156 -11.457031 -3.96875 -11.71875 -5.40625 C -11.925781 -6.582031 -11.753906 -7.503906 -11.203125 -8.171875 C -10.660156 -8.835938 -9.769531 -9.28125 -8.53125 -9.5 L -1.875 -10.671875 L -1.421875 -8.109375 L -7.765625 -6.984375 C -8.453125 -6.867188 -8.921875 -6.648438 -9.171875 -6.328125 C -9.421875 -6.003906 -9.492188 -5.539062 -9.390625 -4.9375 C -9.265625 -4.195312 -8.925781 -3.660156 -8.375 -3.328125 C -7.820312 -3.003906 -7.039062 -2.929688 -6.03125 -3.109375 L -0.71875 -4.046875 Z M -0.265625 -1.484375 "/></g></g></g><g fill="#790000" fill-opacity="1"><g transform="translate(32.220333, 211.593413)"><g><path d="M 3.859375 -5.796875 C 4.023438 -4.085938 3.898438 -2.800781 3.484375 -1.9375 C 3.066406 -1.082031 2.414062 -0.613281 1.53125 -0.53125 C 0.976562 -0.476562 0.507812 -0.609375 0.125 -0.921875 C -0.257812 -1.234375 -0.539062 -1.703125 -0.71875 -2.328125 L -0.921875 -2.3125 C -1.109375 -1.9375 -1.320312 -1.660156 -1.5625 -1.484375 C -1.800781 -1.316406 -2.09375 -1.210938 -2.4375 -1.171875 C -3.269531 -1.085938 -3.882812 -1.570312 -4.28125 -2.625 L -4.484375 -2.59375 C -4.742188 -2.007812 -5.09375 -1.550781 -5.53125 -1.21875 C -5.96875 -0.894531 -6.523438 -0.703125 -7.203125 -0.640625 C -7.878906 -0.578125 -8.5 -0.675781 -9.0625 -0.9375 C -9.625 -1.195312 -10.078125 -1.617188 -10.421875 -2.203125 C -10.773438 -2.785156 -10.992188 -3.5 -11.078125 -4.34375 C -11.160156 -5.207031 -11.078125 -5.914062 -10.828125 -6.46875 C -11.328125 -6.726562 -11.882812 -6.851562 -12.5 -6.84375 L -12.625 -7.03125 L -12.359375 -8.953125 C -11.867188 -8.953125 -11.441406 -8.847656 -11.078125 -8.640625 C -10.722656 -8.441406 -10.382812 -8.109375 -10.0625 -7.640625 L -9.859375 -7.671875 C -9.398438 -8.304688 -8.71875 -8.664062 -7.8125 -8.75 C -7.164062 -8.8125 -6.570312 -8.707031 -6.03125 -8.4375 C -5.5 -8.175781 -5.054688 -7.753906 -4.703125 -7.171875 C -4.347656 -6.597656 -4.128906 -5.890625 -4.046875 -5.046875 L -4.015625 -4.65625 C -4.003906 -4.40625 -3.992188 -4.226562 -3.984375 -4.125 C -3.960938 -3.882812 -3.878906 -3.703125 -3.734375 -3.578125 C -3.597656 -3.460938 -3.425781 -3.414062 -3.21875 -3.4375 C -3 -3.457031 -2.835938 -3.5625 -2.734375 -3.75 C -2.628906 -3.9375 -2.585938 -4.195312 -2.609375 -4.53125 L -2.75 -6.859375 C -2.914062 -9.160156 -2.046875 -10.40625 -0.140625 -10.59375 C 0.523438 -10.65625 1.132812 -10.539062 1.6875 -10.25 C 2.25 -9.96875 2.71875 -9.457031 3.09375 -8.71875 C 3.476562 -7.988281 3.734375 -7.015625 3.859375 -5.796875 Z M -5.859375 -4.859375 C -5.910156 -5.359375 -6.097656 -5.734375 -6.421875 -5.984375 C -6.742188 -6.242188 -7.175781 -6.347656 -7.71875 -6.296875 C -8.269531 -6.242188 -8.675781 -6.0625 -8.9375 -5.75 C -9.195312 -5.4375 -9.300781 -5.03125 -9.25 -4.53125 C -9.195312 -4.03125 -9.015625 -3.65625 -8.703125 -3.40625 C -8.390625 -3.15625 -7.957031 -3.054688 -7.40625 -3.109375 C -6.851562 -3.171875 -6.441406 -3.351562 -6.171875 -3.65625 C -5.910156 -3.957031 -5.804688 -4.359375 -5.859375 -4.859375 Z M 1.96875 -5.609375 C 1.875 -6.503906 1.679688 -7.140625 1.390625 -7.515625 C 1.109375 -7.898438 0.769531 -8.070312 0.375 -8.03125 C 0.0507812 -8 -0.175781 -7.867188 -0.3125 -7.640625 C -0.445312 -7.421875 -0.5 -7.082031 -0.46875 -6.625 L -0.359375 -4.59375 C -0.347656 -4.519531 -0.34375 -4.453125 -0.34375 -4.390625 C -0.34375 -4.328125 -0.34375 -4.265625 -0.34375 -4.203125 C -0.300781 -3.765625 -0.175781 -3.441406 0.03125 -3.234375 C 0.25 -3.023438 0.523438 -2.9375 0.859375 -2.96875 C 1.285156 -3.007812 1.597656 -3.253906 1.796875 -3.703125 C 1.992188 -4.148438 2.050781 -4.785156 1.96875 -5.609375 Z M 1.96875 -5.609375 "/></g></g></g><g fill="#790000" fill-opacity="1"><g transform="translate(31.251042, 201.221767)"><g><path d="M 0.015625 -4.328125 C 0.0546875 -3.390625 -0.160156 -2.660156 -0.640625 -2.140625 C -1.128906 -1.628906 -1.890625 -1.351562 -2.921875 -1.3125 L -14.625 -0.796875 L -14.734375 -3.40625 L -3.140625 -3.921875 C -2.503906 -3.941406 -2.203125 -4.21875 -2.234375 -4.75 C -2.234375 -4.894531 -2.265625 -5.050781 -2.328125 -5.21875 L -2.296875 -5.359375 L -0.296875 -5.6875 C -0.210938 -5.539062 -0.140625 -5.347656 -0.078125 -5.109375 C -0.0234375 -4.878906 0.00390625 -4.617188 0.015625 -4.328125 Z M 0.015625 -4.328125 "/></g></g></g><g fill="#790000" fill-opacity="1"><g transform="translate(30.921847, 195.642113)"><g><path d="M 0.25 -4.0625 C 0.238281 -3.394531 0.109375 -2.8125 -0.140625 -2.3125 C -0.390625 -1.820312 -0.753906 -1.445312 -1.234375 -1.1875 C -1.710938 -0.9375 -2.285156 -0.816406 -2.953125 -0.828125 C -3.566406 -0.835938 -4.082031 -0.972656 -4.5 -1.234375 C -4.914062 -1.503906 -5.253906 -1.914062 -5.515625 -2.46875 C -5.773438 -3.03125 -5.972656 -3.757812 -6.109375 -4.65625 C -6.203125 -5.28125 -6.304688 -5.753906 -6.421875 -6.078125 C -6.535156 -6.398438 -6.664062 -6.617188 -6.8125 -6.734375 C -6.96875 -6.847656 -7.160156 -6.910156 -7.390625 -6.921875 C -7.722656 -6.921875 -7.976562 -6.800781 -8.15625 -6.5625 C -8.332031 -6.332031 -8.425781 -5.945312 -8.4375 -5.40625 C -8.445312 -4.832031 -8.320312 -4.285156 -8.0625 -3.765625 C -7.8125 -3.242188 -7.476562 -2.785156 -7.0625 -2.390625 L -7.0625 -2.203125 L -8.71875 -1.140625 C -9.3125 -1.660156 -9.765625 -2.304688 -10.078125 -3.078125 C -10.390625 -3.847656 -10.539062 -4.679688 -10.53125 -5.578125 C -10.507812 -6.953125 -10.203125 -7.941406 -9.609375 -8.546875 C -9.023438 -9.160156 -8.195312 -9.457031 -7.125 -9.4375 L -2.609375 -9.390625 C -2.140625 -9.390625 -1.898438 -9.597656 -1.890625 -10.015625 C -1.890625 -10.171875 -1.921875 -10.320312 -1.984375 -10.46875 L -1.9375 -10.609375 L -0.125 -10.765625 C -0.03125 -10.617188 0.0390625 -10.414062 0.09375 -10.15625 C 0.15625 -9.894531 0.1875 -9.613281 0.1875 -9.3125 C 0.175781 -8.6875 0.0507812 -8.195312 -0.1875 -7.84375 C -0.425781 -7.5 -0.804688 -7.253906 -1.328125 -7.109375 L -1.34375 -6.921875 C -0.257812 -6.398438 0.269531 -5.445312 0.25 -4.0625 Z M -1.6875 -4.90625 C -1.6875 -5.507812 -1.882812 -5.992188 -2.28125 -6.359375 C -2.6875 -6.722656 -3.253906 -6.910156 -3.984375 -6.921875 L -5.03125 -6.9375 L -5.078125 -6.75 C -4.941406 -6.59375 -4.832031 -6.390625 -4.75 -6.140625 C -4.675781 -5.890625 -4.597656 -5.519531 -4.515625 -5.03125 C -4.429688 -4.457031 -4.273438 -4.046875 -4.046875 -3.796875 C -3.816406 -3.554688 -3.492188 -3.429688 -3.078125 -3.421875 C -2.628906 -3.421875 -2.285156 -3.546875 -2.046875 -3.796875 C -1.816406 -4.054688 -1.695312 -4.425781 -1.6875 -4.90625 Z M -1.6875 -4.90625 "/></g></g></g><g fill="#790000" fill-opacity="1"><g transform="translate(30.9953, 185.218967)"><g><path d="M 0.65625 -5.109375 C 0.582031 -4.285156 0.316406 -3.578125 -0.140625 -2.984375 C -0.597656 -2.390625 -1.242188 -1.945312 -2.078125 -1.65625 C -2.910156 -1.375 -3.921875 -1.289062 -5.109375 -1.40625 C -6.285156 -1.507812 -7.257812 -1.773438 -8.03125 -2.203125 C -8.800781 -2.628906 -9.351562 -3.1875 -9.6875 -3.875 C -10.019531 -4.5625 -10.148438 -5.332031 -10.078125 -6.1875 C -10.023438 -6.832031 -9.863281 -7.378906 -9.59375 -7.828125 C -9.332031 -8.285156 -8.957031 -8.65625 -8.46875 -8.9375 L -8.5 -9.15625 L -13.78125 -9.625 L -13.546875 -12.21875 L 0.96875 -10.921875 L 0.734375 -8.328125 L -0.609375 -8.453125 L -0.671875 -8.25 C -0.203125 -7.914062 0.148438 -7.484375 0.390625 -6.953125 C 0.628906 -6.429688 0.71875 -5.816406 0.65625 -5.109375 Z M -1.46875 -6.125 C -1.40625 -6.863281 -1.617188 -7.46875 -2.109375 -7.9375 C -2.597656 -8.414062 -3.378906 -8.707031 -4.453125 -8.8125 C -5.503906 -8.90625 -6.3125 -8.757812 -6.875 -8.375 C -7.445312 -8 -7.765625 -7.441406 -7.828125 -6.703125 C -7.898438 -5.953125 -7.691406 -5.347656 -7.203125 -4.890625 C -6.722656 -4.441406 -5.941406 -4.171875 -4.859375 -4.078125 C -3.765625 -3.972656 -2.941406 -4.097656 -2.390625 -4.453125 C -1.847656 -4.816406 -1.539062 -5.375 -1.46875 -6.125 Z M -1.46875 -6.125 "/></g></g></g><g fill="#790000" fill-opacity="1"><g transform="translate(32.05183, 173.352524)"><g><path d="M -2.84375 -10.90625 L -3.953125 -4.3125 C -3.046875 -4.238281 -2.351562 -4.382812 -1.875 -4.75 C -1.394531 -5.113281 -1.085938 -5.671875 -0.953125 -6.421875 C -0.859375 -7.003906 -0.890625 -7.5 -1.046875 -7.90625 C -1.210938 -8.3125 -1.5 -8.660156 -1.90625 -8.953125 L -1.859375 -9.15625 L -0.484375 -10.6875 C 0.179688 -10.21875 0.679688 -9.609375 1.015625 -8.859375 C 1.347656 -8.117188 1.421875 -7.1875 1.234375 -6.0625 C 1.046875 -4.988281 0.679688 -4.097656 0.140625 -3.390625 C -0.390625 -2.691406 -1.085938 -2.203125 -1.953125 -1.921875 C -2.816406 -1.640625 -3.820312 -1.59375 -4.96875 -1.78125 C -6.132812 -1.976562 -7.082031 -2.363281 -7.8125 -2.9375 C -8.539062 -3.507812 -9.035156 -4.203125 -9.296875 -5.015625 C -9.566406 -5.835938 -9.617188 -6.722656 -9.453125 -7.671875 C -9.210938 -9.117188 -8.644531 -10.160156 -7.75 -10.796875 C -6.851562 -11.441406 -5.660156 -11.640625 -4.171875 -11.390625 C -3.617188 -11.296875 -3.203125 -11.207031 -2.921875 -11.125 Z M -4.875 -8.96875 C -5.65625 -9.082031 -6.253906 -9 -6.671875 -8.71875 C -7.085938 -8.4375 -7.347656 -7.972656 -7.453125 -7.328125 C -7.679688 -6.015625 -7.0625 -5.125 -5.59375 -4.65625 Z M -4.875 -8.96875 "/></g></g></g><g fill="#790000" fill-opacity="1"><g transform="translate(33.862282, 162.688569)"><g><path d="M 1.34375 -4.671875 C 1.175781 -3.984375 0.941406 -3.367188 0.640625 -2.828125 C 0.335938 -2.296875 -0.00390625 -1.859375 -0.390625 -1.515625 C -0.773438 -1.179688 -1.175781 -0.960938 -1.59375 -0.859375 L -2.765625 -2.640625 L -2.71875 -2.828125 C -2.1875 -3.054688 -1.753906 -3.375 -1.421875 -3.78125 C -1.085938 -4.195312 -0.859375 -4.671875 -0.734375 -5.203125 C -0.617188 -5.703125 -0.617188 -6.097656 -0.734375 -6.390625 C -0.847656 -6.679688 -1.066406 -6.863281 -1.390625 -6.9375 C -1.640625 -7 -1.875 -6.957031 -2.09375 -6.8125 C -2.320312 -6.675781 -2.535156 -6.425781 -2.734375 -6.0625 L -3.359375 -4.78125 C -3.835938 -3.832031 -4.378906 -3.1875 -4.984375 -2.84375 C -5.585938 -2.5 -6.269531 -2.414062 -7.03125 -2.59375 C -7.65625 -2.738281 -8.160156 -3.03125 -8.546875 -3.46875 C -8.941406 -3.914062 -9.1875 -4.457031 -9.28125 -5.09375 C -9.382812 -5.726562 -9.34375 -6.4375 -9.15625 -7.21875 C -8.9375 -8.132812 -8.625 -8.859375 -8.21875 -9.390625 C -7.820312 -9.929688 -7.363281 -10.316406 -6.84375 -10.546875 L -5.703125 -8.828125 L -5.734375 -8.65625 C -6.128906 -8.445312 -6.441406 -8.179688 -6.671875 -7.859375 C -6.898438 -7.546875 -7.066406 -7.175781 -7.171875 -6.75 C -7.410156 -5.75 -7.21875 -5.171875 -6.59375 -5.015625 C -6.320312 -4.953125 -6.082031 -4.992188 -5.875 -5.140625 C -5.675781 -5.285156 -5.46875 -5.582031 -5.25 -6.03125 L -4.671875 -7.21875 C -4.210938 -8.1875 -3.679688 -8.847656 -3.078125 -9.203125 C -2.472656 -9.566406 -1.757812 -9.648438 -0.9375 -9.453125 C -0.289062 -9.296875 0.234375 -9 0.640625 -8.5625 C 1.046875 -8.125 1.3125 -7.570312 1.4375 -6.90625 C 1.570312 -6.25 1.539062 -5.503906 1.34375 -4.671875 Z M 1.34375 -4.671875 "/></g></g></g><g fill="#790000" fill-opacity="1"><g transform="translate(35.916972, 153.837219)"><g><path d="M 0.453125 -1.4375 L -13.4375 -5.84375 L -12.65625 -8.328125 L -7.390625 -6.65625 L -7.28125 -6.828125 C -7.664062 -7.316406 -7.910156 -7.84375 -8.015625 -8.40625 C -8.117188 -8.96875 -8.066406 -9.585938 -7.859375 -10.265625 C -7.160156 -12.453125 -5.570312 -13.148438 -3.09375 -12.359375 L 3.28125 -10.34375 L 2.484375 -7.84375 L -3.578125 -9.765625 C -4.265625 -9.984375 -4.800781 -10.003906 -5.1875 -9.828125 C -5.570312 -9.660156 -5.859375 -9.289062 -6.046875 -8.71875 C -6.265625 -8.019531 -6.207031 -7.394531 -5.875 -6.84375 C -5.539062 -6.289062 -4.882812 -5.859375 -3.90625 -5.546875 L 1.234375 -3.921875 Z M 0.453125 -1.4375 "/></g></g></g><g fill="#790000" fill-opacity="1"><g transform="translate(39.567669, 142.626845)"><g/></g></g><g fill="#790000" fill-opacity="1"><g transform="translate(41.072588, 138.60088)"><g><path d="M 1.75 -4.15625 L 0.703125 -1.65625 L -12 -6.984375 L -10.953125 -9.484375 Z M 1.75 -4.15625 "/></g></g></g><g fill="#790000" fill-opacity="1"><g transform="translate(43.256206, 133.128713)"><g><path d="M 0.65625 -1.34375 L -8.671875 -5.953125 L -7.5625 -8.203125 L -6.1875 -7.515625 L -6.0625 -7.671875 C -6.832031 -8.773438 -6.894531 -9.976562 -6.25 -11.28125 C -5.71875 -12.363281 -5.035156 -13.007812 -4.203125 -13.21875 C -3.367188 -13.4375 -2.390625 -13.269531 -1.265625 -12.71875 L 4.796875 -9.71875 L 3.640625 -7.390625 L -2.125 -10.234375 C -2.757812 -10.546875 -3.269531 -10.644531 -3.65625 -10.53125 C -4.050781 -10.414062 -4.382812 -10.082031 -4.65625 -9.53125 C -4.988281 -8.863281 -5.03125 -8.234375 -4.78125 -7.640625 C -4.53125 -7.046875 -3.941406 -6.523438 -3.015625 -6.078125 L 1.8125 -3.6875 Z M 0.65625 -1.34375 "/></g></g></g><g fill="#790000" fill-opacity="1"><g transform="translate(48.446988, 122.67205)"><g><path d="M 2.625 -4.078125 C 2.269531 -3.472656 1.875 -2.957031 1.4375 -2.53125 C 1 -2.113281 0.546875 -1.796875 0.078125 -1.578125 C -0.390625 -1.359375 -0.84375 -1.265625 -1.28125 -1.296875 L -1.890625 -3.328125 L -1.78125 -3.5 C -1.207031 -3.5625 -0.703125 -3.738281 -0.265625 -4.03125 C 0.171875 -4.320312 0.53125 -4.707031 0.8125 -5.1875 C 1.070312 -5.625 1.1875 -6 1.15625 -6.3125 C 1.132812 -6.632812 0.976562 -6.878906 0.6875 -7.046875 C 0.457031 -7.179688 0.21875 -7.210938 -0.03125 -7.140625 C -0.289062 -7.066406 -0.5625 -6.878906 -0.84375 -6.578125 L -1.828125 -5.546875 C -2.554688 -4.785156 -3.257812 -4.328125 -3.9375 -4.171875 C -4.613281 -4.015625 -5.289062 -4.132812 -5.96875 -4.53125 C -6.519531 -4.851562 -6.921875 -5.273438 -7.171875 -5.796875 C -7.421875 -6.328125 -7.5 -6.914062 -7.40625 -7.5625 C -7.320312 -8.21875 -7.078125 -8.890625 -6.671875 -9.578125 C -6.191406 -10.390625 -5.679688 -10.988281 -5.140625 -11.375 C -4.597656 -11.769531 -4.046875 -12.003906 -3.484375 -12.078125 L -2.875 -10.109375 L -2.96875 -9.953125 C -3.40625 -9.867188 -3.78125 -9.703125 -4.09375 -9.453125 C -4.414062 -9.210938 -4.6875 -8.90625 -4.90625 -8.53125 C -5.425781 -7.644531 -5.410156 -7.039062 -4.859375 -6.71875 C -4.617188 -6.582031 -4.378906 -6.550781 -4.140625 -6.625 C -3.898438 -6.707031 -3.609375 -6.925781 -3.265625 -7.28125 L -2.359375 -8.25 C -1.640625 -9.039062 -0.941406 -9.519531 -0.265625 -9.6875 C 0.410156 -9.863281 1.109375 -9.738281 1.828125 -9.3125 C 2.410156 -8.976562 2.832031 -8.539062 3.09375 -8 C 3.351562 -7.46875 3.445312 -6.863281 3.375 -6.1875 C 3.3125 -5.519531 3.0625 -4.816406 2.625 -4.078125 Z M 2.625 -4.078125 "/></g></g></g><g fill="#790000" fill-opacity="1"><g transform="translate(53.091797, 114.756565)"><g><path d="M 1.921875 -7.34375 L 3.90625 -6.84375 C 3.9375 -6.476562 3.890625 -6.078125 3.765625 -5.640625 C 3.640625 -5.210938 3.429688 -4.78125 3.140625 -4.34375 C 2.515625 -3.40625 1.78125 -2.859375 0.9375 -2.703125 C 0.101562 -2.554688 -0.800781 -2.804688 -1.78125 -3.453125 L -5.890625 -6.203125 L -6.765625 -4.890625 L -8.484375 -6.03125 L -7.609375 -7.34375 L -9.296875 -8.46875 L -8.203125 -10.875 L -6.15625 -9.515625 L -4.53125 -11.96875 L -2.8125 -10.828125 L -4.4375 -8.375 L -0.484375 -5.734375 C -0.0546875 -5.453125 0.3125 -5.335938 0.625 -5.390625 C 0.945312 -5.441406 1.222656 -5.632812 1.453125 -5.96875 C 1.703125 -6.351562 1.820312 -6.757812 1.8125 -7.1875 Z M 1.921875 -7.34375 "/></g></g></g><g fill="#790000" fill-opacity="1"><g transform="translate(57.411093, 108.308045)"><g><path d="M -7.734375 -9.140625 C -8.015625 -8.765625 -8.351562 -8.539062 -8.75 -8.46875 C -9.15625 -8.394531 -9.546875 -8.492188 -9.921875 -8.765625 C -10.273438 -9.023438 -10.476562 -9.359375 -10.53125 -9.765625 C -10.59375 -10.171875 -10.484375 -10.5625 -10.203125 -10.9375 C -10.015625 -11.195312 -9.796875 -11.382812 -9.546875 -11.5 C -9.304688 -11.625 -9.050781 -11.671875 -8.78125 -11.640625 C -8.507812 -11.617188 -8.257812 -11.519531 -8.03125 -11.34375 C -7.78125 -11.164062 -7.601562 -10.953125 -7.5 -10.703125 C -7.40625 -10.460938 -7.375 -10.207031 -7.40625 -9.9375 C -7.4375 -9.664062 -7.546875 -9.398438 -7.734375 -9.140625 Z M 0.890625 -1.203125 L -7.5 -7.359375 L -5.953125 -9.46875 L 2.4375 -3.3125 Z M 0.890625 -1.203125 "/></g></g></g><g fill="#790000" fill-opacity="1"><g transform="translate(60.506641, 104.029609)"><g><path d="M 2.5625 -7.15625 L 4.5 -6.46875 C 4.5 -6.101562 4.414062 -5.707031 4.25 -5.28125 C 4.082031 -4.863281 3.832031 -4.445312 3.5 -4.03125 C 2.800781 -3.15625 2.023438 -2.679688 1.171875 -2.609375 C 0.328125 -2.535156 -0.546875 -2.863281 -1.453125 -3.59375 L -5.3125 -6.703125 L -6.296875 -5.484375 L -7.90625 -6.78125 L -6.921875 -8 L -8.5 -9.265625 L -7.1875 -11.5625 L -5.28125 -10.03125 L -3.4375 -12.34375 L -1.828125 -11.046875 L -3.671875 -8.734375 L 0.046875 -5.75 C 0.441406 -5.425781 0.796875 -5.273438 1.109375 -5.296875 C 1.429688 -5.328125 1.71875 -5.5 1.96875 -5.8125 C 2.257812 -6.175781 2.414062 -6.570312 2.4375 -7 Z M 2.5625 -7.15625 "/></g></g></g><g fill="#790000" fill-opacity="1"><g transform="translate(65.2172, 98.045657)"><g><path d="M 3.375 -3.359375 C 2.59375 -2.503906 1.773438 -2.085938 0.921875 -2.109375 C 0.0664062 -2.128906 -0.800781 -2.546875 -1.6875 -3.359375 L -6.75 -8.03125 L -4.984375 -9.953125 L -0.15625 -5.515625 C 0.3125 -5.078125 0.742188 -4.859375 1.140625 -4.859375 C 1.535156 -4.859375 1.929688 -5.070312 2.328125 -5.5 C 2.816406 -6.03125 3.019531 -6.601562 2.9375 -7.21875 C 2.863281 -7.84375 2.457031 -8.5 1.71875 -9.1875 L -2.296875 -12.875 L -0.53125 -14.796875 L 7.125 -7.75 L 5.4375 -5.90625 L 4.3125 -6.9375 L 4.140625 -6.828125 C 4.347656 -6.171875 4.398438 -5.566406 4.296875 -5.015625 C 4.191406 -4.460938 3.882812 -3.910156 3.375 -3.359375 Z M 3.375 -3.359375 "/></g></g></g><g fill="#790000" fill-opacity="1"><g transform="translate(73.080722, 89.570306)"><g><path d="M 3.46875 -6.75 L 5.3125 -5.8125 C 5.269531 -5.445312 5.140625 -5.066406 4.921875 -4.671875 C 4.703125 -4.285156 4.398438 -3.910156 4.015625 -3.546875 C 3.191406 -2.765625 2.359375 -2.390625 1.515625 -2.421875 C 0.671875 -2.460938 -0.15625 -2.90625 -0.96875 -3.75 L -4.375 -7.34375 L -5.53125 -6.265625 L -6.953125 -7.75 L -5.796875 -8.828125 L -7.203125 -10.296875 L -5.609375 -12.421875 L -3.90625 -10.640625 L -1.78125 -12.671875 L -0.359375 -11.1875 L -2.484375 -9.15625 L 0.796875 -5.703125 C 1.148438 -5.328125 1.484375 -5.128906 1.796875 -5.109375 C 2.117188 -5.097656 2.425781 -5.234375 2.71875 -5.515625 C 3.050781 -5.828125 3.257812 -6.191406 3.34375 -6.609375 Z M 3.46875 -6.75 "/></g></g></g><g fill="#790000" fill-opacity="1"><g transform="translate(78.560219, 84.258476)"><g><path d="M 4.921875 -10.140625 L -0.203125 -5.84375 C 0.429688 -5.1875 1.050781 -4.84375 1.65625 -4.8125 C 2.257812 -4.789062 2.851562 -5.023438 3.4375 -5.515625 C 3.882812 -5.890625 4.179688 -6.28125 4.328125 -6.6875 C 4.472656 -7.101562 4.488281 -7.554688 4.375 -8.046875 L 4.53125 -8.171875 L 6.578125 -8.4375 C 6.765625 -7.65625 6.742188 -6.867188 6.515625 -6.078125 C 6.285156 -5.296875 5.734375 -4.539062 4.859375 -3.8125 C 4.023438 -3.113281 3.175781 -2.671875 2.3125 -2.484375 C 1.457031 -2.304688 0.609375 -2.390625 -0.234375 -2.734375 C -1.078125 -3.078125 -1.875 -3.695312 -2.625 -4.59375 C -3.375 -5.5 -3.84375 -6.398438 -4.03125 -7.296875 C -4.21875 -8.203125 -4.144531 -9.050781 -3.8125 -9.84375 C -3.476562 -10.644531 -2.941406 -11.351562 -2.203125 -11.96875 C -1.078125 -12.914062 0.03125 -13.335938 1.125 -13.234375 C 2.21875 -13.140625 3.25 -12.515625 4.21875 -11.359375 C 4.570312 -10.941406 4.832031 -10.601562 5 -10.34375 Z M 2.109375 -9.984375 C 1.578125 -10.578125 1.0625 -10.898438 0.5625 -10.953125 C 0.0703125 -11.015625 -0.421875 -10.835938 -0.921875 -10.421875 C -1.941406 -9.566406 -2.050781 -8.484375 -1.25 -7.171875 Z M 2.109375 -9.984375 "/></g></g></g><g fill="#790000" fill-opacity="1"><g transform="translate(86.990501, 77.296493)"><g/></g></g><g fill="#790000" fill-opacity="1"><g transform="translate(90.252218, 74.69843)"><g><path d="M 5.125 -3.203125 C 4.28125 -2.628906 3.421875 -2.300781 2.546875 -2.21875 C 1.671875 -2.144531 0.832031 -2.320312 0.03125 -2.75 C -0.757812 -3.1875 -1.472656 -3.882812 -2.109375 -4.84375 C -2.742188 -5.78125 -3.113281 -6.707031 -3.21875 -7.625 C -3.320312 -8.539062 -3.171875 -9.382812 -2.765625 -10.15625 C -2.359375 -10.925781 -1.734375 -11.597656 -0.890625 -12.171875 C -0.0351562 -12.734375 0.820312 -13.054688 1.6875 -13.140625 C 2.5625 -13.222656 3.40625 -13.046875 4.21875 -12.609375 C 5.03125 -12.171875 5.753906 -11.484375 6.390625 -10.546875 C 7.023438 -9.585938 7.382812 -8.648438 7.46875 -7.734375 C 7.5625 -6.828125 7.40625 -5.984375 7 -5.203125 C 6.601562 -4.429688 5.976562 -3.765625 5.125 -3.203125 Z M 3.890625 -5.046875 C 5.234375 -5.941406 5.316406 -7.273438 4.140625 -9.046875 C 3.523438 -9.953125 2.898438 -10.5 2.265625 -10.6875 C 1.640625 -10.882812 1 -10.769531 0.34375 -10.34375 C -0.988281 -9.4375 -1.0625 -8.101562 0.125 -6.34375 C 1.300781 -4.570312 2.554688 -4.140625 3.890625 -5.046875 Z M 3.890625 -5.046875 "/></g></g></g><g fill="#790000" fill-opacity="1"><g transform="translate(99.94374, 68.26958)"><g><path d="M 1.5625 -0.90625 L -2.625 -8.125 L -3.890625 -7.390625 L -4.9375 -9.171875 L -3.671875 -9.90625 C -3.972656 -10.238281 -4.21875 -10.566406 -4.40625 -10.890625 C -4.738281 -11.460938 -4.894531 -12.023438 -4.875 -12.578125 C -4.851562 -13.140625 -4.65625 -13.671875 -4.28125 -14.171875 C -3.914062 -14.671875 -3.394531 -15.117188 -2.71875 -15.515625 C -1.726562 -16.085938 -0.890625 -16.34375 -0.203125 -16.28125 L 0.234375 -14.328125 L 0.078125 -14.171875 C -0.390625 -14.222656 -0.882812 -14.09375 -1.40625 -13.78125 C -1.820312 -13.539062 -2.070312 -13.265625 -2.15625 -12.953125 C -2.25 -12.640625 -2.195312 -12.316406 -2 -11.984375 C -1.914062 -11.828125 -1.828125 -11.691406 -1.734375 -11.578125 C -1.648438 -11.472656 -1.535156 -11.359375 -1.390625 -11.234375 L 1.171875 -12.71875 L 2.21875 -10.9375 L -0.34375 -9.453125 L 3.84375 -2.234375 Z M 1.5625 -0.90625 "/></g></g></g><g fill="#790000" fill-opacity="1"><g transform="translate(106.200458, 64.660248)"><g/></g></g><g fill="#790000" fill-opacity="1"><g transform="translate(109.859418, 62.61793)"><g><path d="M 3.734375 -16.9375 L 4.703125 -14.859375 L -0.75 -12.328125 L 0.78125 -9.03125 L 5.734375 -11.328125 L 6.6875 -9.28125 L 1.734375 -6.984375 L 4.09375 -1.90625 L 1.625 -0.75 L -4.1875 -13.25 Z M 3.734375 -16.9375 "/></g></g></g><g fill="#790000" fill-opacity="1"><g transform="translate(119.460495, 58.108877)"><g><path d="M 5.734375 -1.9375 C 4.785156 -1.582031 3.875 -1.46875 3 -1.59375 C 2.125 -1.71875 1.347656 -2.082031 0.671875 -2.6875 C -0.00390625 -3.289062 -0.546875 -4.128906 -0.953125 -5.203125 C -1.347656 -6.265625 -1.488281 -7.25 -1.375 -8.15625 C -1.269531 -9.070312 -0.925781 -9.859375 -0.34375 -10.515625 C 0.226562 -11.179688 0.988281 -11.691406 1.9375 -12.046875 C 2.894531 -12.398438 3.804688 -12.515625 4.671875 -12.390625 C 5.535156 -12.273438 6.3125 -11.910156 7 -11.296875 C 7.6875 -10.691406 8.226562 -9.859375 8.625 -8.796875 C 9.03125 -7.722656 9.171875 -6.734375 9.046875 -5.828125 C 8.929688 -4.921875 8.585938 -4.132812 8.015625 -3.46875 C 7.453125 -2.800781 6.691406 -2.289062 5.734375 -1.9375 Z M 4.953125 -4.015625 C 6.460938 -4.578125 6.84375 -5.851562 6.09375 -7.84375 C 5.707031 -8.863281 5.226562 -9.539062 4.65625 -9.875 C 4.09375 -10.21875 3.441406 -10.253906 2.703125 -9.984375 C 1.191406 -9.421875 0.8125 -8.144531 1.5625 -6.15625 C 2.3125 -4.164062 3.441406 -3.453125 4.953125 -4.015625 Z M 4.953125 -4.015625 "/></g></g></g><g fill="#790000" fill-opacity="1"><g transform="translate(130.408922, 54.084081)"><g><path d="M 4.1875 -1.078125 C 3.289062 -0.804688 2.53125 -0.835938 1.90625 -1.171875 C 1.289062 -1.503906 0.832031 -2.164062 0.53125 -3.15625 L -2.921875 -14.34375 L -0.4375 -15.109375 L 2.984375 -4.03125 C 3.171875 -3.414062 3.519531 -3.191406 4.03125 -3.359375 C 4.175781 -3.398438 4.316406 -3.46875 4.453125 -3.5625 L 4.59375 -3.578125 L 5.421875 -1.71875 C 5.296875 -1.601562 5.125 -1.488281 4.90625 -1.375 C 4.695312 -1.269531 4.457031 -1.171875 4.1875 -1.078125 Z M 4.1875 -1.078125 "/></g></g></g><g fill="#790000" fill-opacity="1"><g transform="translate(135.734926, 52.363372)"><g><path d="M 1.453125 -0.359375 L -2.09375 -14.5 L 0.4375 -15.140625 L 2.40625 -7.296875 L 2.65625 -7.359375 L 4.625 -11.890625 L 7.203125 -12.53125 L 7.25 -12.3125 L 4.921875 -7.03125 L 10.046875 -2.765625 L 10.109375 -2.53125 L 7.4375 -1.859375 L 3.171875 -5.328125 L 2.921875 -5.265625 L 3.984375 -1 Z M 1.453125 -0.359375 "/></g></g></g><g fill="#790000" fill-opacity="1"><g transform="translate(145.49846, 49.965788)"><g><path d="M 4.265625 -0.625 C 3.347656 -0.4375 2.597656 -0.546875 2.015625 -0.953125 C 1.441406 -1.359375 1.054688 -2.070312 0.859375 -3.09375 L -1.375 -14.59375 L 1.1875 -15.078125 L 3.40625 -3.6875 C 3.519531 -3.0625 3.835938 -2.800781 4.359375 -2.90625 C 4.503906 -2.9375 4.65625 -2.992188 4.8125 -3.078125 L 4.96875 -3.078125 L 5.5625 -1.125 C 5.445312 -1.03125 5.269531 -0.9375 5.03125 -0.84375 C 4.800781 -0.75 4.546875 -0.675781 4.265625 -0.625 Z M 4.265625 -0.625 "/></g></g></g><g fill="#790000" fill-opacity="1"><g transform="translate(150.936101, 48.803604)"><g><path d="M 6.03125 -0.59375 C 5.007812 -0.457031 4.085938 -0.546875 3.265625 -0.859375 C 2.453125 -1.179688 1.78125 -1.710938 1.25 -2.453125 C 0.726562 -3.203125 0.390625 -4.144531 0.234375 -5.28125 C 0.0859375 -6.40625 0.171875 -7.398438 0.484375 -8.265625 C 0.796875 -9.128906 1.300781 -9.816406 2 -10.328125 C 2.707031 -10.835938 3.570312 -11.160156 4.59375 -11.296875 C 5.601562 -11.429688 6.515625 -11.34375 7.328125 -11.03125 C 8.140625 -10.726562 8.816406 -10.203125 9.359375 -9.453125 C 9.898438 -8.703125 10.242188 -7.765625 10.390625 -6.640625 C 10.546875 -5.503906 10.457031 -4.503906 10.125 -3.640625 C 9.800781 -2.785156 9.289062 -2.097656 8.59375 -1.578125 C 7.894531 -1.054688 7.039062 -0.726562 6.03125 -0.59375 Z M 5.734375 -2.796875 C 7.328125 -3.015625 7.984375 -4.175781 7.703125 -6.28125 C 7.554688 -7.363281 7.242188 -8.128906 6.765625 -8.578125 C 6.285156 -9.035156 5.660156 -9.210938 4.890625 -9.109375 C 3.285156 -8.898438 2.625 -7.742188 2.90625 -5.640625 C 3.1875 -3.535156 4.128906 -2.585938 5.734375 -2.796875 Z M 5.734375 -2.796875 "/></g></g></g><g fill="#790000" fill-opacity="1"><g transform="translate(162.455864, 47.317243)"><g><path d="M 1.5 -0.09375 L 0.8125 -10.484375 L 3.328125 -10.65625 L 3.4375 -9.109375 L 3.640625 -9.078125 C 3.847656 -9.671875 4.148438 -10.117188 4.546875 -10.421875 C 4.941406 -10.722656 5.429688 -10.890625 6.015625 -10.921875 C 6.597656 -10.960938 7.050781 -10.890625 7.375 -10.703125 L 7.078125 -8.421875 L 6.890625 -8.375 C 6.710938 -8.425781 6.539062 -8.460938 6.375 -8.484375 C 6.21875 -8.503906 6.03125 -8.507812 5.8125 -8.5 C 5.082031 -8.445312 4.539062 -8.148438 4.1875 -7.609375 C 3.832031 -7.078125 3.691406 -6.242188 3.765625 -5.109375 L 4.09375 -0.265625 Z M 1.5 -0.09375 "/></g></g></g><g fill="#790000" fill-opacity="1"><g transform="translate(170.139327, 46.743128)"><g><path d="M 10.265625 -4.625 L 3.578125 -4.625 C 3.660156 -3.71875 3.921875 -3.054688 4.359375 -2.640625 C 4.804688 -2.234375 5.410156 -2.03125 6.171875 -2.03125 C 6.765625 -2.03125 7.242188 -2.140625 7.609375 -2.359375 C 7.984375 -2.585938 8.285156 -2.925781 8.515625 -3.375 L 8.71875 -3.375 L 10.453125 -2.265625 C 10.109375 -1.535156 9.59375 -0.941406 8.90625 -0.484375 C 8.226562 -0.0351562 7.316406 0.1875 6.171875 0.1875 C 5.085938 0.1875 4.15625 -0.015625 3.375 -0.421875 C 2.59375 -0.828125 1.988281 -1.429688 1.5625 -2.234375 C 1.144531 -3.046875 0.929688 -4.035156 0.921875 -5.203125 C 0.921875 -6.378906 1.140625 -7.375 1.578125 -8.1875 C 2.023438 -9 2.625 -9.601562 3.375 -10 C 4.132812 -10.40625 4.992188 -10.609375 5.953125 -10.609375 C 7.421875 -10.609375 8.546875 -10.222656 9.328125 -9.453125 C 10.117188 -8.679688 10.515625 -7.539062 10.515625 -6.03125 C 10.515625 -5.476562 10.5 -5.046875 10.46875 -4.734375 Z M 8.015625 -6.3125 C 7.992188 -7.101562 7.8125 -7.679688 7.46875 -8.046875 C 7.125 -8.410156 6.625 -8.59375 5.96875 -8.59375 C 4.644531 -8.59375 3.867188 -7.832031 3.640625 -6.3125 Z M 8.015625 -6.3125 "/></g></g></g><g fill="#790000" fill-opacity="1"><g transform="translate(181.072795, 46.796854)"><g/></g></g><g fill="#790000" fill-opacity="1"><g transform="translate(185.213256, 46.859603)"><g><path d="M 13.15625 1.4375 L 10.296875 1.125 L 9.609375 -2.140625 L 4.359375 -2.71875 L 3 0.328125 L 0.203125 0.015625 L 6.4375 -13.15625 L 9.921875 -12.78125 Z M 7.703125 -10.125 L 5.34375 -4.921875 L 9.125 -4.5 L 7.9375 -10.109375 Z M 7.703125 -10.125 "/></g></g></g><g fill="#790000" fill-opacity="1"><g transform="translate(197.97958, 48.256689)"><g><path d="M 1.46875 0.28125 L 3.46875 -9.9375 L 5.921875 -9.453125 L 5.625 -7.9375 L 5.8125 -7.84375 C 6.675781 -8.882812 7.820312 -9.265625 9.25 -8.984375 C 10.425781 -8.753906 11.226562 -8.265625 11.65625 -7.515625 C 12.082031 -6.773438 12.175781 -5.789062 11.9375 -4.5625 L 10.640625 2.078125 L 8.078125 1.578125 L 9.3125 -4.734375 C 9.445312 -5.421875 9.40625 -5.9375 9.1875 -6.28125 C 8.976562 -6.632812 8.570312 -6.867188 7.96875 -6.984375 C 7.238281 -7.128906 6.617188 -7.003906 6.109375 -6.609375 C 5.609375 -6.222656 5.257812 -5.523438 5.0625 -4.515625 L 4.03125 0.78125 Z M 1.46875 0.28125 "/></g></g></g><g fill="#790000" fill-opacity="1"><g transform="translate(209.381122, 50.455852)"><g><path d="M 4.890625 1.59375 C 4.097656 1.375 3.453125 0.984375 2.953125 0.421875 C 2.453125 -0.140625 2.140625 -0.859375 2.015625 -1.734375 C 1.890625 -2.609375 1.988281 -3.617188 2.3125 -4.765625 C 2.632812 -5.898438 3.078125 -6.804688 3.640625 -7.484375 C 4.210938 -8.171875 4.863281 -8.613281 5.59375 -8.8125 C 6.320312 -9.019531 7.097656 -9.007812 7.921875 -8.78125 C 8.554688 -8.601562 9.070312 -8.34375 9.46875 -8 C 9.875 -7.65625 10.171875 -7.210938 10.359375 -6.671875 L 10.546875 -6.65625 L 11.984375 -11.765625 L 14.5 -11.0625 L 10.5625 2.96875 L 8.046875 2.265625 L 8.40625 0.96875 L 8.234375 0.859375 C 7.816406 1.265625 7.328125 1.535156 6.765625 1.671875 C 6.203125 1.816406 5.578125 1.789062 4.890625 1.59375 Z M 6.3125 -0.3125 C 7.019531 -0.113281 7.648438 -0.207031 8.203125 -0.59375 C 8.753906 -0.988281 9.175781 -1.707031 9.46875 -2.75 C 9.757812 -3.769531 9.769531 -4.59375 9.5 -5.21875 C 9.226562 -5.84375 8.738281 -6.253906 8.03125 -6.453125 C 7.289062 -6.660156 6.65625 -6.570312 6.125 -6.1875 C 5.59375 -5.800781 5.179688 -5.082031 4.890625 -4.03125 C 4.597656 -2.96875 4.578125 -2.132812 4.828125 -1.53125 C 5.078125 -0.925781 5.570312 -0.519531 6.3125 -0.3125 Z M 6.3125 -0.3125 "/></g></g></g><g fill="#790000" fill-opacity="1"><g transform="translate(220.969961, 53.815363)"><g/></g></g><g fill="#790000" fill-opacity="1"><g transform="translate(224.930614, 55.017926)"><g><path d="M 6.890625 3.046875 C 5.710938 2.566406 4.773438 1.894531 4.078125 1.03125 C 3.390625 0.175781 2.992188 -0.84375 2.890625 -2.03125 C 2.785156 -3.21875 3.023438 -4.53125 3.609375 -5.96875 C 4.203125 -7.40625 4.953125 -8.507812 5.859375 -9.28125 C 6.765625 -10.0625 7.765625 -10.507812 8.859375 -10.625 C 9.960938 -10.738281 11.101562 -10.554688 12.28125 -10.078125 C 13.507812 -9.578125 14.453125 -8.910156 15.109375 -8.078125 C 15.773438 -7.242188 16.085938 -6.257812 16.046875 -5.125 L 13.75 -4.765625 L 13.53125 -4.859375 C 13.53125 -5.628906 13.351562 -6.253906 13 -6.734375 C 12.65625 -7.210938 12.117188 -7.601562 11.390625 -7.90625 C 10.328125 -8.34375 9.351562 -8.332031 8.46875 -7.875 C 7.582031 -7.414062 6.828125 -6.425781 6.203125 -4.90625 C 5.585938 -3.394531 5.429688 -2.164062 5.734375 -1.21875 C 6.035156 -0.269531 6.71875 0.421875 7.78125 0.859375 C 9.4375 1.535156 10.785156 1.148438 11.828125 -0.296875 L 12.046875 -0.203125 L 13.484375 1.515625 C 12.648438 2.578125 11.6875 3.238281 10.59375 3.5 C 9.5 3.757812 8.265625 3.609375 6.890625 3.046875 Z M 6.890625 3.046875 "/></g></g></g><g fill="#790000" fill-opacity="1"><g transform="translate(236.889645, 59.926812)"><g><path d="M 5.28125 2.9375 C 4.375 2.476562 3.675781 1.878906 3.1875 1.140625 C 2.695312 0.410156 2.445312 -0.40625 2.4375 -1.3125 C 2.425781 -2.21875 2.679688 -3.179688 3.203125 -4.203125 C 3.710938 -5.210938 4.34375 -5.984375 5.09375 -6.515625 C 5.851562 -7.046875 6.664062 -7.316406 7.53125 -7.328125 C 8.40625 -7.347656 9.296875 -7.128906 10.203125 -6.671875 C 11.117188 -6.203125 11.820312 -5.609375 12.3125 -4.890625 C 12.8125 -4.171875 13.0625 -3.347656 13.0625 -2.421875 C 13.070312 -1.503906 12.820312 -0.539062 12.3125 0.46875 C 11.789062 1.488281 11.15625 2.253906 10.40625 2.765625 C 9.65625 3.285156 8.84375 3.5625 7.96875 3.59375 C 7.09375 3.625 6.195312 3.40625 5.28125 2.9375 Z M 6.296875 0.953125 C 7.734375 1.691406 8.9375 1.117188 9.90625 -0.765625 C 10.40625 -1.742188 10.585938 -2.554688 10.453125 -3.203125 C 10.316406 -3.847656 9.898438 -4.351562 9.203125 -4.71875 C 7.765625 -5.445312 6.5625 -4.863281 5.59375 -2.96875 C 4.625 -1.082031 4.859375 0.222656 6.296875 0.953125 Z M 6.296875 0.953125 "/></g></g></g><g fill="#790000" fill-opacity="1"><g transform="translate(247.121265, 64.96293)"><g><path d="M 1.265625 0.8125 L 6.90625 -7.9375 L 9 -6.578125 L 8.234375 -5.390625 L 8.390625 -5.265625 C 8.984375 -5.554688 9.539062 -5.6875 10.0625 -5.65625 C 10.582031 -5.625 11.140625 -5.421875 11.734375 -5.046875 C 12.398438 -4.609375 12.851562 -4.128906 13.09375 -3.609375 C 13.332031 -3.097656 13.378906 -2.53125 13.234375 -1.90625 L 13.390625 -1.8125 C 13.992188 -2.15625 14.585938 -2.316406 15.171875 -2.296875 C 15.765625 -2.273438 16.378906 -2.054688 17.015625 -1.640625 C 18.828125 -0.472656 19.085938 1.113281 17.796875 3.125 L 14 9.015625 L 11.8125 7.609375 L 15.421875 2 C 15.753906 1.488281 15.890625 1.050781 15.828125 0.6875 C 15.773438 0.332031 15.523438 0.0078125 15.078125 -0.28125 C 13.867188 -1.0625 12.742188 -0.644531 11.703125 0.96875 L 8.71875 5.609375 L 6.53125 4.203125 L 10.140625 -1.40625 C 10.472656 -1.914062 10.609375 -2.347656 10.546875 -2.703125 C 10.492188 -3.066406 10.242188 -3.390625 9.796875 -3.671875 C 9.242188 -4.035156 8.679688 -4.128906 8.109375 -3.953125 C 7.546875 -3.785156 7 -3.289062 6.46875 -2.46875 L 3.453125 2.21875 Z M 1.265625 0.8125 "/></g></g></g><g fill="#790000" fill-opacity="1"><g transform="translate(261.584014, 74.215858)"><g><path d="M 1.15625 0.953125 L 7.78125 -7.078125 L 9.703125 -5.484375 L 8.8125 -4.390625 L 8.9375 -4.25 C 9.570312 -4.457031 10.144531 -4.515625 10.65625 -4.421875 C 11.175781 -4.335938 11.707031 -4.070312 12.25 -3.625 C 12.863281 -3.125 13.253906 -2.597656 13.421875 -2.046875 C 13.597656 -1.503906 13.578125 -0.9375 13.359375 -0.34375 L 13.5 -0.21875 C 14.144531 -0.488281 14.757812 -0.578125 15.34375 -0.484375 C 15.925781 -0.398438 16.507812 -0.113281 17.09375 0.375 C 18.757812 1.75 18.828125 3.363281 17.296875 5.21875 L 12.84375 10.609375 L 10.828125 8.9375 L 15.078125 3.796875 C 15.460938 3.328125 15.648438 2.910156 15.640625 2.546875 C 15.628906 2.191406 15.414062 1.847656 15 1.515625 C 13.894531 0.597656 12.734375 0.878906 11.515625 2.359375 L 8 6.609375 L 5.984375 4.9375 L 10.234375 -0.203125 C 10.617188 -0.671875 10.804688 -1.082031 10.796875 -1.4375 C 10.785156 -1.800781 10.570312 -2.148438 10.15625 -2.484375 C 9.644531 -2.910156 9.097656 -3.070312 8.515625 -2.96875 C 7.941406 -2.875 7.34375 -2.445312 6.71875 -1.6875 L 3.171875 2.609375 Z M 1.15625 0.953125 "/></g></g></g><g fill="#790000" fill-opacity="1"><g transform="translate(274.847068, 85.313527)"><g><path d="M 3.21875 3.515625 C 2.394531 2.691406 2.015625 1.851562 2.078125 1 C 2.140625 0.15625 2.597656 -0.6875 3.453125 -1.53125 L 8.328125 -6.375 L 10.15625 -4.53125 L 5.515625 0.09375 C 5.054688 0.539062 4.820312 0.960938 4.8125 1.359375 C 4.800781 1.753906 5 2.15625 5.40625 2.5625 C 5.914062 3.082031 6.476562 3.316406 7.09375 3.265625 C 7.707031 3.222656 8.375 2.847656 9.09375 2.140625 L 12.953125 -1.703125 L 14.796875 0.140625 L 7.421875 7.46875 L 5.65625 5.703125 L 6.75 4.625 L 6.640625 4.4375 C 5.984375 4.632812 5.378906 4.660156 4.828125 4.515625 C 4.285156 4.378906 3.75 4.046875 3.21875 3.515625 Z M 3.21875 3.515625 "/></g></g></g><g fill="#790000" fill-opacity="1"><g transform="translate(282.949169, 93.432794)"><g><path d="M 0.96875 1.140625 L 8.90625 -5.578125 L 10.515625 -3.671875 L 9.34375 -2.6875 L 9.453125 -2.5 C 10.765625 -2.757812 11.890625 -2.335938 12.828125 -1.234375 C 13.609375 -0.316406 13.929688 0.566406 13.796875 1.421875 C 13.660156 2.273438 13.113281 3.101562 12.15625 3.90625 L 7 8.28125 L 5.328125 6.28125 L 10.234375 2.125 C 10.773438 1.664062 11.066406 1.234375 11.109375 0.828125 C 11.160156 0.429688 10.988281 0 10.59375 -0.46875 C 10.113281 -1.039062 9.550781 -1.328125 8.90625 -1.328125 C 8.269531 -1.335938 7.554688 -1.007812 6.765625 -0.34375 L 2.65625 3.140625 Z M 0.96875 1.140625 "/></g></g></g><g fill="#790000" fill-opacity="1"><g transform="translate(290.487068, 102.467597)"><g><path d="M 10.984375 -4.75 C 10.703125 -5.125 10.585938 -5.515625 10.640625 -5.921875 C 10.691406 -6.328125 10.898438 -6.671875 11.265625 -6.953125 C 11.617188 -7.222656 11.992188 -7.320312 12.390625 -7.25 C 12.796875 -7.1875 13.140625 -6.96875 13.421875 -6.59375 C 13.617188 -6.34375 13.738281 -6.078125 13.78125 -5.796875 C 13.820312 -5.523438 13.789062 -5.269531 13.6875 -5.03125 C 13.582031 -4.789062 13.414062 -4.582031 13.1875 -4.40625 C 12.945312 -4.21875 12.691406 -4.109375 12.421875 -4.078125 C 12.160156 -4.046875 11.90625 -4.085938 11.65625 -4.203125 C 11.40625 -4.316406 11.179688 -4.5 10.984375 -4.75 Z M 0.90625 1.203125 L 9.234375 -5.046875 L 10.796875 -2.96875 L 2.46875 3.28125 Z M 0.90625 1.203125 "/></g></g></g><g fill="#790000" fill-opacity="1"><g transform="translate(293.687862, 106.667905)"><g><path d="M 6.09375 4.515625 L 4.890625 6.171875 C 4.535156 6.078125 4.179688 5.890625 3.828125 5.609375 C 3.472656 5.328125 3.144531 4.960938 2.84375 4.515625 C 2.207031 3.585938 1.976562 2.707031 2.15625 1.875 C 2.332031 1.050781 2.898438 0.3125 3.859375 -0.34375 L 7.953125 -3.140625 L 7.0625 -4.4375 L 8.765625 -5.609375 L 9.65625 -4.3125 L 11.328125 -5.453125 L 13.15625 -3.53125 L 11.125 -2.15625 L 12.796875 0.28125 L 11.09375 1.453125 L 9.421875 -0.984375 L 5.484375 1.703125 C 5.066406 1.984375 4.820312 2.28125 4.75 2.59375 C 4.675781 2.90625 4.753906 3.234375 4.984375 3.578125 C 5.242188 3.953125 5.578125 4.210938 5.984375 4.359375 Z M 6.09375 4.515625 "/></g></g></g><g fill="#790000" fill-opacity="1"><g transform="translate(298.045387, 112.936883)"><g><path d="M -2.609375 4.21875 C -2.835938 3.832031 -3.015625 3.46875 -3.140625 3.125 C -3.265625 2.78125 -3.335938 2.484375 -3.359375 2.234375 L -1.34375 1.515625 L -1.1875 1.640625 C -1.175781 1.816406 -1.132812 2.015625 -1.0625 2.234375 C -1 2.460938 -0.90625 2.679688 -0.78125 2.890625 C -0.5625 3.253906 -0.332031 3.523438 -0.09375 3.703125 C 0.132812 3.890625 0.410156 4.003906 0.734375 4.046875 C 1.054688 4.085938 1.445312 4.054688 1.90625 3.953125 L 9.0625 -5.125 L 10.46875 -2.765625 L 5.5625 3.140625 L 5.671875 3.328125 L 13.1875 1.8125 L 14.546875 4.109375 L 2.890625 6.140625 C 1.960938 6.316406 1.160156 6.367188 0.484375 6.296875 C -0.179688 6.234375 -0.765625 6.035156 -1.265625 5.703125 C -1.773438 5.367188 -2.222656 4.875 -2.609375 4.21875 Z M -2.609375 4.21875 "/></g></g></g><g fill="#790000" fill-opacity="1"><g transform="translate(303.494459, 122.255953)"><g/></g></g><g fill="#790000" fill-opacity="1"><g transform="translate(305.563645, 125.811355)"><g><path d="M 15.34375 0.515625 C 16.25 2.554688 16.414062 4.351562 15.84375 5.90625 C 15.269531 7.457031 13.941406 8.703125 11.859375 9.640625 C 9.796875 10.566406 7.988281 10.726562 6.4375 10.125 C 4.894531 9.519531 3.671875 8.195312 2.765625 6.15625 L 0.734375 1.640625 L 13.3125 -4 Z M 4.796875 5.078125 C 5.367188 6.367188 6.128906 7.1875 7.078125 7.53125 C 8.023438 7.875 9.234375 7.71875 10.703125 7.0625 C 12.179688 6.394531 13.109375 5.59375 13.484375 4.65625 C 13.867188 3.71875 13.773438 2.601562 13.203125 1.3125 L 12.34375 -0.578125 L 3.9375 3.1875 Z M 4.796875 5.078125 "/></g></g></g><g fill="#790000" fill-opacity="1"><g transform="translate(311.297257, 138.72873)"><g><path d="M 7.75 8.1875 L 5.546875 1.875 C 4.703125 2.238281 4.160156 2.695312 3.921875 3.25 C 3.679688 3.8125 3.6875 4.453125 3.9375 5.171875 C 4.132812 5.734375 4.394531 6.148438 4.71875 6.421875 C 5.050781 6.691406 5.46875 6.863281 5.96875 6.9375 L 6.046875 7.125 L 5.5625 9.140625 C 4.757812 9.054688 4.03125 8.765625 3.375 8.265625 C 2.726562 7.765625 2.21875 6.972656 1.84375 5.890625 C 1.488281 4.867188 1.375 3.921875 1.5 3.046875 C 1.625 2.171875 2 1.398438 2.625 0.734375 C 3.257812 0.078125 4.125 -0.441406 5.21875 -0.828125 C 6.332031 -1.210938 7.34375 -1.328125 8.25 -1.171875 C 9.164062 -1.023438 9.9375 -0.65625 10.5625 -0.0625 C 11.1875 0.519531 11.65625 1.265625 11.96875 2.171875 C 12.457031 3.554688 12.460938 4.742188 11.984375 5.734375 C 11.503906 6.722656 10.554688 7.46875 9.140625 7.96875 C 8.617188 8.144531 8.207031 8.273438 7.90625 8.359375 Z M 8.59375 5.5 C 9.332031 5.21875 9.816406 4.851562 10.046875 4.40625 C 10.273438 3.96875 10.28125 3.441406 10.0625 2.828125 C 9.625 1.578125 8.65625 1.09375 7.15625 1.375 Z M 8.59375 5.5 "/></g></g></g><g fill="#790000" fill-opacity="1"><g transform="translate(314.866992, 148.902144)"><g><path d="M 1.859375 6.90625 L 1.046875 3.90625 L 10.09375 -2.484375 L 10.8125 0.15625 L 4.296875 4.5625 L 4.359375 4.765625 L 12.203125 5.359375 L 12.890625 7.9375 Z M 1.859375 6.90625 "/></g></g></g><g fill="#790000" fill-opacity="1"><g transform="translate(317.645052, 159.196816)"><g><path d="M 6.453125 9.234375 L 5.203125 2.671875 C 4.316406 2.910156 3.710938 3.285156 3.390625 3.796875 C 3.078125 4.304688 2.992188 4.9375 3.140625 5.6875 C 3.242188 6.269531 3.441406 6.722656 3.734375 7.046875 C 4.023438 7.367188 4.410156 7.597656 4.890625 7.734375 L 4.921875 7.9375 L 4.15625 9.84375 C 3.382812 9.644531 2.707031 9.25 2.125 8.65625 C 1.550781 8.070312 1.160156 7.21875 0.953125 6.09375 C 0.742188 5.03125 0.769531 4.078125 1.03125 3.234375 C 1.289062 2.398438 1.773438 1.695312 2.484375 1.125 C 3.203125 0.5625 4.132812 0.171875 5.28125 -0.046875 C 6.4375 -0.265625 7.453125 -0.234375 8.328125 0.046875 C 9.210938 0.328125 9.921875 0.800781 10.453125 1.46875 C 10.984375 2.144531 11.34375 2.953125 11.53125 3.890625 C 11.800781 5.335938 11.628906 6.515625 11.015625 7.421875 C 10.398438 8.335938 9.347656 8.9375 7.859375 9.21875 C 7.316406 9.320312 6.894531 9.390625 6.59375 9.421875 Z M 7.6875 6.71875 C 8.46875 6.550781 9 6.257812 9.28125 5.84375 C 9.570312 5.4375 9.660156 4.910156 9.546875 4.265625 C 9.296875 2.960938 8.40625 2.347656 6.875 2.421875 Z M 7.6875 6.71875 "/></g></g></g><g fill="#790000" fill-opacity="1"><g transform="translate(319.622178, 169.913596)"><g><path d="M 0.359375 4.3125 C 0.234375 3.375 0.390625 2.628906 0.828125 2.078125 C 1.265625 1.523438 1.992188 1.179688 3.015625 1.046875 L 14.640625 -0.484375 L 14.984375 2.109375 L 3.46875 3.625 C 2.84375 3.707031 2.566406 4.007812 2.640625 4.53125 C 2.648438 4.675781 2.691406 4.828125 2.765625 4.984375 L 2.765625 5.140625 L 0.796875 5.640625 C 0.703125 5.503906 0.613281 5.316406 0.53125 5.078125 C 0.457031 4.847656 0.398438 4.59375 0.359375 4.3125 Z M 0.359375 4.3125 "/></g></g></g><g fill="#790000" fill-opacity="1"><g transform="translate(320.449645, 175.414312)"><g><path d="M 0.234375 6.046875 C 0.160156 5.023438 0.304688 4.113281 0.671875 3.3125 C 1.035156 2.519531 1.601562 1.882812 2.375 1.40625 C 3.144531 0.925781 4.101562 0.644531 5.25 0.5625 C 6.382812 0.476562 7.367188 0.617188 8.203125 0.984375 C 9.046875 1.347656 9.703125 1.894531 10.171875 2.625 C 10.648438 3.363281 10.925781 4.242188 11 5.265625 C 11.070312 6.285156 10.925781 7.191406 10.5625 7.984375 C 10.195312 8.773438 9.625 9.414062 8.84375 9.90625 C 8.070312 10.394531 7.117188 10.679688 5.984375 10.765625 C 4.835938 10.847656 3.847656 10.703125 3.015625 10.328125 C 2.179688 9.953125 1.523438 9.398438 1.046875 8.671875 C 0.578125 7.941406 0.304688 7.066406 0.234375 6.046875 Z M 2.453125 5.890625 C 2.566406 7.503906 3.679688 8.234375 5.796875 8.078125 C 6.890625 8.003906 7.675781 7.738281 8.15625 7.28125 C 8.644531 6.820312 8.863281 6.203125 8.8125 5.421875 C 8.695312 3.804688 7.578125 3.078125 5.453125 3.234375 C 3.335938 3.390625 2.335938 4.273438 2.453125 5.890625 Z M 2.453125 5.890625 "/></g></g></g><g fill="#790000" fill-opacity="1"><g transform="translate(321.305261, 186.904332)"><g><path d="M -4.234375 1.46875 L 10.390625 1.59375 L 10.375 4.203125 L 9.015625 4.1875 L 8.96875 4.390625 C 9.488281 4.691406 9.878906 5.101562 10.140625 5.625 C 10.398438 6.144531 10.53125 6.753906 10.53125 7.453125 C 10.519531 8.285156 10.3125 9.007812 9.90625 9.625 C 9.507812 10.25 8.90625 10.734375 8.09375 11.078125 C 7.289062 11.421875 6.296875 11.585938 5.109375 11.578125 C 3.910156 11.566406 2.910156 11.375 2.109375 11 C 1.304688 10.625 0.707031 10.109375 0.3125 9.453125 C -0.0820312 8.796875 -0.273438 8.039062 -0.265625 7.1875 C -0.253906 6.539062 -0.140625 5.976562 0.078125 5.5 C 0.296875 5.03125 0.640625 4.640625 1.109375 4.328125 L 1.078125 4.125 L -4.25 4.078125 Z M 1.953125 6.46875 C 1.953125 7.25 2.203125 7.84375 2.703125 8.25 C 3.210938 8.65625 4.019531 8.863281 5.125 8.875 C 6.21875 8.882812 7.023438 8.691406 7.546875 8.296875 C 8.066406 7.898438 8.328125 7.3125 8.328125 6.53125 C 8.335938 5.800781 8.078125 5.21875 7.546875 4.78125 C 7.023438 4.351562 6.234375 4.132812 5.171875 4.125 C 4.109375 4.113281 3.304688 4.316406 2.765625 4.734375 C 2.234375 5.160156 1.960938 5.738281 1.953125 6.46875 Z M 1.953125 6.46875 "/></g></g></g><g fill="#790000" fill-opacity="1"><g transform="translate(321.380447, 198.66357)"><g><path d="M -0.15625 1.484375 L 10.1875 2.609375 L 9.90625 5.09375 L 8.515625 4.9375 L 8.46875 5.140625 C 8.976562 5.546875 9.335938 5.988281 9.546875 6.46875 C 9.765625 6.957031 9.832031 7.550781 9.75 8.25 C 9.664062 9.039062 9.441406 9.65625 9.078125 10.09375 C 8.722656 10.53125 8.238281 10.828125 7.625 10.984375 L 7.609375 11.171875 C 8.179688 11.554688 8.585938 12.015625 8.828125 12.546875 C 9.078125 13.085938 9.160156 13.738281 9.078125 14.5 C 8.835938 16.644531 7.523438 17.585938 5.140625 17.328125 L -1.8125 16.5625 L -1.515625 13.96875 L 5.109375 14.6875 C 5.710938 14.757812 6.160156 14.6875 6.453125 14.46875 C 6.742188 14.257812 6.921875 13.890625 6.984375 13.359375 C 7.140625 11.929688 6.265625 11.113281 4.359375 10.90625 L -1.125 10.3125 L -0.84375 7.71875 L 5.78125 8.4375 C 6.382812 8.507812 6.832031 8.4375 7.125 8.21875 C 7.425781 8.007812 7.609375 7.644531 7.671875 7.125 C 7.742188 6.457031 7.570312 5.910156 7.15625 5.484375 C 6.75 5.054688 6.0625 4.789062 5.09375 4.6875 L -0.453125 4.078125 Z M -0.15625 1.484375 "/></g></g></g><g fill="#790000" fill-opacity="1"><g transform="translate(319.373216, 215.858618)"><g><path d="M 2.421875 11 L 3.78125 4.453125 C 2.882812 4.335938 2.1875 4.453125 1.6875 4.796875 C 1.195312 5.148438 0.875 5.703125 0.71875 6.453125 C 0.59375 7.035156 0.601562 7.53125 0.75 7.9375 C 0.894531 8.34375 1.164062 8.707031 1.5625 9.03125 L 1.515625 9.21875 L 0.078125 10.6875 C -0.566406 10.207031 -1.039062 9.582031 -1.34375 8.8125 C -1.65625 8.050781 -1.691406 7.113281 -1.453125 6 C -1.234375 4.9375 -0.84375 4.0625 -0.28125 3.375 C 0.28125 2.695312 1 2.234375 1.875 1.984375 C 2.75 1.742188 3.757812 1.742188 4.90625 1.984375 C 6.0625 2.222656 6.988281 2.640625 7.6875 3.234375 C 8.394531 3.828125 8.863281 4.535156 9.09375 5.359375 C 9.332031 6.191406 9.351562 7.078125 9.15625 8.015625 C 8.851562 9.453125 8.242188 10.472656 7.328125 11.078125 C 6.410156 11.691406 5.210938 11.84375 3.734375 11.53125 C 3.191406 11.414062 2.78125 11.3125 2.5 11.21875 Z M 4.53125 9.140625 C 5.3125 9.273438 5.914062 9.210938 6.34375 8.953125 C 6.769531 8.703125 7.050781 8.253906 7.1875 7.609375 C 7.457031 6.316406 6.867188 5.398438 5.421875 4.859375 Z M 4.53125 9.140625 "/></g></g></g><g fill="#790000" fill-opacity="1"><g transform="translate(317.222651, 226.401764)"><g><path d="M -0.421875 1.4375 L 9.578125 4.328125 L 8.890625 6.734375 L 7.421875 6.3125 L 7.3125 6.484375 C 8.257812 7.441406 8.53125 8.617188 8.125 10.015625 C 7.789062 11.171875 7.234375 11.925781 6.453125 12.28125 C 5.671875 12.644531 4.679688 12.648438 3.484375 12.296875 L -3.015625 10.421875 L -2.296875 7.90625 L 3.890625 9.703125 C 4.554688 9.890625 5.070312 9.890625 5.4375 9.703125 C 5.8125 9.523438 6.085938 9.144531 6.265625 8.5625 C 6.472656 7.832031 6.398438 7.203125 6.046875 6.671875 C 5.691406 6.148438 5.019531 5.742188 4.03125 5.453125 L -1.140625 3.953125 Z M -0.421875 1.4375 "/></g></g></g><g fill="#790000" fill-opacity="1"><g transform="translate(313.914781, 237.633549)"><g><path d="M -0.125 7.578125 L -2.171875 7.578125 C -2.296875 7.222656 -2.34375 6.820312 -2.3125 6.375 C -2.289062 5.925781 -2.191406 5.453125 -2.015625 4.953125 C -1.628906 3.898438 -1.046875 3.203125 -0.265625 2.859375 C 0.515625 2.515625 1.453125 2.539062 2.546875 2.9375 L 7.203125 4.625 L 7.734375 3.140625 L 9.671875 3.84375 L 9.140625 5.328125 L 11.046875 6.03125 L 10.5625 8.625 L 8.25 7.78125 L 7.234375 10.546875 L 5.296875 9.84375 L 6.3125 7.078125 L 1.828125 5.453125 C 1.347656 5.273438 0.957031 5.25 0.65625 5.375 C 0.363281 5.5 0.148438 5.753906 0.015625 6.140625 C -0.140625 6.566406 -0.164062 6.988281 -0.0625 7.40625 Z M -0.125 7.578125 "/></g></g></g><g fill="#f4f6fc" fill-opacity="1"><g transform="translate(110.313367, 309.68535)"><g><path d="M 33.421875 -24.640625 C 33.421875 -21.890625 32.703125 -19.796875 31.265625 -18.359375 C 32.847656 -16.910156 33.640625 -14.757812 33.640625 -11.90625 L 33.640625 -9 C 33.640625 -8.34375 33.609375 -7.703125 33.546875 -7.078125 C 33.492188 -6.453125 33.410156 -5.867188 33.296875 -5.328125 C 33.179688 -4.773438 33.03125 -4.257812 32.84375 -3.78125 C 32.65625 -3.3125 32.414062 -2.875 32.125 -2.46875 C 31.632812 -1.6875 30.914062 -1.066406 29.96875 -0.609375 C 29.09375 -0.171875 28.007812 0.046875 26.71875 0.046875 L 7.234375 0.046875 C 6.566406 0.046875 5.9375 -0.117188 5.34375 -0.453125 C 4.75 -0.785156 4.28125 -1.238281 3.9375 -1.8125 C 3.707031 -2.21875 3.550781 -2.664062 3.46875 -3.15625 L 3.5 -32.734375 C 3.5625 -32.898438 3.628906 -33.078125 3.703125 -33.265625 C 3.773438 -33.460938 3.851562 -33.644531 3.9375 -33.8125 C 4.632812 -34.9375 5.628906 -35.546875 6.921875 -35.640625 L 6.921875 -35.671875 L 26.0625 -35.671875 C 28.71875 -35.671875 30.609375 -34.9375 31.734375 -33.46875 C 32.859375 -32.050781 33.421875 -29.914062 33.421875 -27.0625 Z M 9.828125 -6.625 C 9.828125 -6.539062 9.832031 -6.484375 9.84375 -6.453125 C 9.863281 -6.421875 9.875 -6.40625 9.875 -6.40625 L 24.9375 -6.40625 C 25.800781 -6.40625 26.40625 -6.59375 26.75 -6.96875 C 27.101562 -7.375 27.28125 -8.066406 27.28125 -9.046875 L 27.28125 -12 C 27.28125 -12.914062 27.09375 -13.609375 26.71875 -14.078125 C 26.3125 -14.535156 25.5625 -14.765625 24.46875 -14.765625 L 16.0625 -14.765625 C 15.6875 -14.765625 15.351562 -14.898438 15.0625 -15.171875 C 14.78125 -15.453125 14.640625 -15.789062 14.640625 -16.1875 L 14.640625 -19.75 C 14.640625 -20.144531 14.78125 -20.476562 15.0625 -20.75 C 15.351562 -21.03125 15.6875 -21.171875 16.0625 -21.171875 L 24.46875 -21.171875 C 25.59375 -21.171875 26.328125 -21.375 26.671875 -21.78125 C 27.046875 -22.1875 27.234375 -22.820312 27.234375 -23.6875 L 27.234375 -26.671875 C 27.234375 -27.617188 27.0625 -28.28125 26.71875 -28.65625 C 26.363281 -29.0625 25.769531 -29.265625 24.9375 -29.265625 L 9.921875 -29.265625 C 9.859375 -29.265625 9.828125 -29.179688 9.828125 -29.015625 Z M 9.828125 -6.625 "/></g></g></g><g fill="#f4f6fc" fill-opacity="1"><g transform="translate(145.246295, 309.68535)"><g><path d="M 8.65625 -35.671875 C 8.832031 -35.671875 9.078125 -35.582031 9.390625 -35.40625 C 9.710938 -35.238281 9.875 -34.820312 9.875 -34.15625 L 9.875 -1.46875 C 9.875 -0.800781 9.710938 -0.378906 9.390625 -0.203125 C 9.078125 -0.0351562 8.832031 0.046875 8.65625 0.046875 L 4.671875 0.046875 C 4.503906 0.046875 4.257812 -0.0351562 3.9375 -0.203125 C 3.625 -0.378906 3.46875 -0.800781 3.46875 -1.46875 L 3.46875 -34.15625 C 3.46875 -34.820312 3.625 -35.238281 3.9375 -35.40625 C 4.257812 -35.582031 4.503906 -35.671875 4.671875 -35.671875 Z M 8.65625 -35.671875 "/></g></g></g><g fill="#f4f6fc" fill-opacity="1"><g transform="translate(156.41353, 309.68535)"><g><path d="M 29.53125 -35.671875 C 29.695312 -35.671875 29.9375 -35.59375 30.25 -35.4375 C 30.570312 -35.28125 30.734375 -34.851562 30.734375 -34.15625 L 30.734375 -30.734375 C 30.734375 -30.078125 30.570312 -29.664062 30.25 -29.5 C 29.9375 -29.34375 29.695312 -29.265625 29.53125 -29.265625 L 4.625 -29.265625 C 4.457031 -29.265625 4.222656 -29.347656 3.921875 -29.515625 C 3.617188 -29.691406 3.46875 -30.113281 3.46875 -30.78125 L 3.46875 -34.125 C 3.46875 -34.8125 3.617188 -35.238281 3.921875 -35.40625 C 4.222656 -35.582031 4.457031 -35.671875 4.625 -35.671875 Z M 29.3125 -21.171875 C 29.488281 -21.171875 29.734375 -21.082031 30.046875 -20.90625 C 30.367188 -20.738281 30.53125 -20.320312 30.53125 -19.65625 L 30.53125 -16.234375 C 30.53125 -15.566406 30.367188 -15.15625 30.046875 -15 C 29.734375 -14.84375 29.488281 -14.765625 29.3125 -14.765625 L 9.953125 -14.765625 C 9.953125 -14.765625 9.945312 -14.445312 9.9375 -13.8125 C 9.925781 -13.175781 9.921875 -12.351562 9.921875 -11.34375 C 9.921875 -10.332031 9.910156 -9.253906 9.890625 -8.109375 C 9.878906 -6.972656 9.875 -5.898438 9.875 -4.890625 C 9.875 -3.878906 9.875 -3.054688 9.875 -2.421875 C 9.875 -1.785156 9.875 -1.46875 9.875 -1.46875 C 9.875 -0.800781 9.710938 -0.378906 9.390625 -0.203125 C 9.078125 -0.0351562 8.832031 0.046875 8.65625 0.046875 L 4.671875 0.046875 C 4.503906 0.046875 4.257812 -0.0351562 3.9375 -0.203125 C 3.625 -0.378906 3.46875 -0.800781 3.46875 -1.46875 L 3.546875 -18.1875 C 3.609375 -18.382812 3.675781 -18.578125 3.75 -18.765625 C 3.820312 -18.953125 3.898438 -19.132812 3.984375 -19.3125 C 4.671875 -20.4375 5.664062 -21.039062 6.96875 -21.125 Z M 29.3125 -21.171875 "/></g></g></g><g fill="#f4f6fc" fill-opacity="1"><g transform="translate(188.44609, 309.68535)"><g><path d="M 29.921875 -35.671875 C 30.085938 -35.671875 30.328125 -35.582031 30.640625 -35.40625 C 30.960938 -35.238281 31.125 -34.820312 31.125 -34.15625 L 31.125 -30.828125 C 31.125 -30.128906 30.960938 -29.691406 30.640625 -29.515625 C 30.328125 -29.347656 30.085938 -29.265625 29.921875 -29.265625 L 14.375 -29.265625 C 13.394531 -29.265625 12.644531 -29.164062 12.125 -28.96875 C 11.601562 -28.789062 11.171875 -28.472656 10.828125 -28.015625 C 10.503906 -27.578125 10.257812 -26.941406 10.09375 -26.109375 C 10.03125 -25.703125 9.976562 -25.234375 9.9375 -24.703125 C 9.894531 -24.171875 9.875 -23.570312 9.875 -22.90625 L 9.875 -12.8125 C 9.875 -12.175781 9.894531 -11.582031 9.9375 -11.03125 C 9.976562 -10.488281 10.03125 -10 10.09375 -9.5625 C 10.175781 -9.164062 10.273438 -8.804688 10.390625 -8.484375 C 10.503906 -8.171875 10.648438 -7.894531 10.828125 -7.65625 C 11.171875 -7.195312 11.601562 -6.882812 12.125 -6.71875 C 12.644531 -6.507812 13.394531 -6.40625 14.375 -6.40625 L 29.921875 -6.40625 C 30.085938 -6.40625 30.328125 -6.316406 30.640625 -6.140625 C 30.960938 -5.972656 31.125 -5.554688 31.125 -4.890625 L 31.125 -1.46875 C 31.125 -0.800781 30.960938 -0.378906 30.640625 -0.203125 C 30.328125 -0.0351562 30.085938 0.046875 29.921875 0.046875 L 14.15625 0.046875 C 12.28125 0.046875 10.648438 -0.195312 9.265625 -0.6875 C 7.941406 -1.15625 6.832031 -1.953125 5.9375 -3.078125 C 5.039062 -4.234375 4.40625 -5.644531 4.03125 -7.3125 C 3.820312 -8.175781 3.675781 -9.128906 3.59375 -10.171875 C 3.507812 -11.210938 3.46875 -12.335938 3.46875 -13.546875 L 3.46875 -22.125 C 3.46875 -23.3125 3.507812 -24.421875 3.59375 -25.453125 C 3.675781 -26.492188 3.820312 -27.429688 4.03125 -28.265625 C 4.40625 -30.003906 5.039062 -31.421875 5.9375 -32.515625 C 6.769531 -33.609375 7.878906 -34.414062 9.265625 -34.9375 C 10.648438 -35.425781 12.28125 -35.671875 14.15625 -35.671875 Z M 29.921875 -35.671875 "/></g></g></g><g fill="#f4f6fc" fill-opacity="1"><g transform="translate(220.868253, 309.68535)"><g><path d="M 33.03125 -27.625 C 33.46875 -25.800781 33.6875 -23.664062 33.6875 -21.21875 L 33.6875 -14.421875 C 33.6875 -11.960938 33.46875 -9.828125 33.03125 -8.015625 C 32.832031 -7.117188 32.550781 -6.285156 32.1875 -5.515625 C 31.832031 -4.753906 31.421875 -4.082031 30.953125 -3.5 C 30.003906 -2.289062 28.78125 -1.398438 27.28125 -0.828125 C 25.800781 -0.242188 24.050781 0.046875 22.03125 0.046875 L 7.234375 0.046875 C 6.566406 0.046875 5.9375 -0.117188 5.34375 -0.453125 C 4.75 -0.785156 4.28125 -1.238281 3.9375 -1.8125 C 3.707031 -2.21875 3.550781 -2.664062 3.46875 -3.15625 L 3.5 -32.734375 C 3.5625 -32.898438 3.628906 -33.078125 3.703125 -33.265625 C 3.773438 -33.460938 3.851562 -33.644531 3.9375 -33.8125 C 4.632812 -34.9375 5.628906 -35.546875 6.921875 -35.640625 L 6.921875 -35.671875 L 22.03125 -35.671875 C 24.03125 -35.671875 25.78125 -35.382812 27.28125 -34.8125 C 28.75 -34.226562 29.972656 -33.347656 30.953125 -32.171875 C 31.421875 -31.566406 31.832031 -30.890625 32.1875 -30.140625 C 32.550781 -29.390625 32.832031 -28.550781 33.03125 -27.625 Z M 9.828125 -6.625 C 9.828125 -6.539062 9.832031 -6.484375 9.84375 -6.453125 C 9.863281 -6.421875 9.875 -6.40625 9.875 -6.40625 L 21.90625 -6.40625 C 22.394531 -6.40625 22.851562 -6.429688 23.28125 -6.484375 C 23.71875 -6.546875 24.113281 -6.632812 24.46875 -6.75 C 25.125 -7.007812 25.65625 -7.398438 26.0625 -7.921875 C 26.5 -8.503906 26.800781 -9.253906 26.96875 -10.171875 C 27.0625 -10.660156 27.132812 -11.203125 27.1875 -11.796875 C 27.25 -12.390625 27.28125 -13.046875 27.28125 -13.765625 L 27.28125 -21.859375 C 27.28125 -22.585938 27.25 -23.253906 27.1875 -23.859375 C 27.132812 -24.460938 27.0625 -25.007812 26.96875 -25.5 C 26.800781 -26.425781 26.5 -27.160156 26.0625 -27.703125 C 25.71875 -28.222656 25.1875 -28.613281 24.46875 -28.875 C 23.769531 -29.132812 22.914062 -29.265625 21.90625 -29.265625 L 9.921875 -29.265625 C 9.859375 -29.265625 9.828125 -29.179688 9.828125 -29.015625 Z M 9.828125 -6.625 "/></g></g></g></svg>